<?xml version="1.0" encoding="UTF-8" standalone="no"?>
<!-- Created with Inkscape (http://www.inkscape.org/) -->

<svg
   width="6.804522mm"
   height="6.86729mm"
   viewBox="0 0 6.804522 6.86729"
   version="1.1"
   id="svg1"
   xml:space="preserve"
   inkscape:version="1.4.2 (ebf0e940d0, 2025-05-08)"
   sodipodi:docname="launcher.svg"
   inkscape:export-filename="../../source/bslflash/assets/icon/launcher.png"
   inkscape:export-xdpi="96"
   inkscape:export-ydpi="96"
   xmlns:inkscape="http://www.inkscape.org/namespaces/inkscape"
   xmlns:sodipodi="http://sodipodi.sourceforge.net/DTD/sodipodi-0.dtd"
   xmlns="http://www.w3.org/2000/svg"
   xmlns:svg="http://www.w3.org/2000/svg"><sodipodi:namedview
     id="namedview1"
     pagecolor="#505050"
     bordercolor="#eeeeee"
     borderopacity="1"
     inkscape:showpageshadow="0"
     inkscape:pageopacity="0"
     inkscape:pagecheckerboard="0"
     inkscape:deskcolor="#505050"
     inkscape:document-units="mm"
     inkscape:zoom="18.861994"
     inkscape:cx="10.788891"
     inkscape:cy="15.560391"
     inkscape:window-width="1920"
     inkscape:window-height="1048"
     inkscape:window-x="1080"
     inkscape:window-y="462"
     inkscape:window-maximized="1"
     inkscape:current-layer="layer1" /><defs
     id="defs1" /><g
     inkscape:label="Layer 1"
     inkscape:groupmode="layer"
     id="layer1"
     transform="translate(-97.599058,-141.36363)"><path
       id="path4-2"
       style="display:inline;fill:#4f3d74;stroke-width:0.0993497"
       inkscape:label="Circle"
       d="m 104.40358,144.79727 a 3.4022641,3.4336467 0 0 1 -3.40226,3.43365 3.4022641,3.4336467 0 0 1 -3.402262,-3.43365 3.4022641,3.4336467 0 0 1 3.402262,-3.43364 3.4022641,3.4336467 0 0 1 3.40226,3.43364 z" /><path
       id="rect5"
       style="baseline-shift:baseline;display:inline;overflow:visible;opacity:1;vector-effect:none;fill:#ffffff;enable-background:accumulate;stop-color:#000000;stop-opacity:1"
       d="m 102.1917,145.37511 c -5.8e-4,0.0878 -0.0323,0.17562 -0.0982,0.24598 v 0.002 l -0.017,0.0196 h 1.7849 v -1.88154 a 3.0386218,3.0666502 0 0 0 -0.26768,-0.56379 v 2.17765 z" /><path
       id="path13"
       style="baseline-shift:baseline;display:inline;overflow:visible;opacity:1;vector-effect:none;fill:#ffffff;enable-background:accumulate;stop-color:#000000;stop-opacity:1"
       d="m 101.00159,141.73037 a 3.0386218,3.0666502 0 0 0 -0.0873,0.002 v 2.01641 c 0.14725,0.10621 0.20205,0.31091 0.11679,0.47801 l -0.0661,0.13694 c 0.0742,-0.002 0.14988,0.0128 0.21497,0.0517 v -2.5616 h 0.67283 a 3.0386218,3.0666502 0 0 0 -0.85111,-0.12299 z" /><path
       d="m 99.33803,147.44097 c -0.37165,-0.32471 -0.4988,-0.84111 -0.33645,-1.29688 l 0.41665,-1.15994 c 0.043,-0.11933 0.20539,-0.13498 0.26993,-0.0254 l 0.0606,0.10759 c 0.0469,0.0763 0.0567,0.17018 0.0274,0.25429 l -0.19169,0.53597 0.0841,0.0743 1.16582,-1.32035 c 0.0685,-0.0782 0.18582,-0.0861 0.26602,-0.0176 0.0763,0.0685 0.0841,0.18778 0.0176,0.26407 l -0.87045,0.9839 0.11345,0.0998 1.06606,-1.20885 c 0.0685,-0.0782 0.18779,-0.0861 0.26407,-0.0176 0.0783,0.0685 0.0861,0.18974 0.0137,0.26602 l -1.06411,1.20886 0.11346,0.0998 0.9174,-1.04063 c 0.0685,-0.0782 0.18778,-0.0861 0.26406,-0.0176 0.0763,0.0685 0.0861,0.18778 0.0176,0.26016 l -0.9174,1.04454 0.11149,0.0998 0.62008,-0.70223 c 0.0685,-0.0782 0.18778,-0.0861 0.26602,-0.0176 0.0783,0.0685 0.0841,0.18779 0.0157,0.26016 l -1.01716,1.158 c -0.43816,0.4988 -1.19712,0.54575 -1.69396,0.10758 m 0.72179,-2.39619 0.55553,-0.62985 c 0.0469,-0.0528 0.10562,-0.0978 0.17017,-0.12324 l 0.0743,-0.15257 c 0.0469,-0.0919 0.008,-0.20539 -0.0861,-0.25038 -0.0919,-0.045 -0.20539,-0.006 -0.25038,0.0861 l -0.49097,1.00542 c 0.01,0.0215 0.0215,0.043 0.0273,0.0645 m -0.11541,-0.23865 v 0.01 l 0.54379,-1.10909 c 0.043,-0.0939 0.006,-0.20539 -0.088,-0.25038 -0.0919,-0.046 -0.20539,-0.008 -0.25037,0.0861 l -0.51641,1.05823 c 0.12715,0.0215 0.23865,0.0939 0.31102,0.20539 m -1.21864,1.2382 0.41664,-1.15995 c 0.0528,-0.14671 0.17605,-0.24647 0.32276,-0.27973 l 0.4186,-0.85871 c 0.045,-0.0939 0.006,-0.20539 -0.0861,-0.25037 -0.0939,-0.045 -0.2054,-0.008 -0.25038,0.0861 l -0.77657,1.58442 -0.0978,-0.0489 0.0411,-0.56922 c 0.008,-0.088 -0.0273,-0.17604 -0.09,-0.23863 l -0.09,-0.09 c -0.0919,-0.0841 -0.242549,-0.0273 -0.25233,0.0978 l -0.09781,1.23038 c -0.02543,0.39904 0.150618,0.78046 0.45968,1.0191 -0.004,-0.17213 0.0215,-0.35013 0.0821,-0.52226 z"
       id="path1-6-9"
       style="display:inline;fill:#ffffff;fill-opacity:1;stroke-width:0.195607"
       inkscape:label="Hands" /><path
       d="m 102.253,144.01652 h -0.66993 l 0.9379,-1.8758 v 1.07189 h 0.66993 l -0.9379,1.87579 z"
       id="path1-9"
       style="fill:#ffffff;stroke-width:0.133985"
       inkscape:label="Bolt" /></g></svg>
