<?xml version="1.0" encoding="UTF-8" standalone="no"?>
<!-- Created with Inkscape (http://www.inkscape.org/) -->

<svg
   width="512"
   height="512"
   viewBox="0 0 512 512"
   version="1.1"
   id="svg1"
   xml:space="preserve"
   inkscape:version="1.4.2 (ebf0e940d0, 2025-05-08)"
   sodipodi:docname="launcher.svg"
   inkscape:export-filename="signflash.png"
   inkscape:export-xdpi="1893.811"
   inkscape:export-ydpi="1893.811"
   xmlns:inkscape="http://www.inkscape.org/namespaces/inkscape"
   xmlns:sodipodi="http://sodipodi.sourceforge.net/DTD/sodipodi-0.dtd"
   xmlns="http://www.w3.org/2000/svg"
   xmlns:svg="http://www.w3.org/2000/svg"><sodipodi:namedview
     id="namedview1"
     pagecolor="#505050"
     bordercolor="#eeeeee"
     borderopacity="1"
     inkscape:showpageshadow="0"
     inkscape:pageopacity="0"
     inkscape:pagecheckerboard="0"
     inkscape:deskcolor="#505050"
     inkscape:document-units="px"
     inkscape:zoom="1.1788746"
     inkscape:cx="111.54706"
     inkscape:cy="323.61372"
     inkscape:window-width="1920"
     inkscape:window-height="1048"
     inkscape:window-x="1080"
     inkscape:window-y="462"
     inkscape:window-maximized="1"
     inkscape:current-layer="layer1" /><defs
     id="defs1" /><g
     inkscape:label="Layer 1"
     inkscape:groupmode="layer"
     id="layer1"
     transform="translate(-97.599058,-141.36363)"><rect
       style="fill:#3b335a;fill-opacity:1;stroke:none;stroke-width:20;stroke-dasharray:none"
       id="rect3"
       width="512"
       height="512"
       x="97.59906"
       y="141.36363" /><path
       id="path4-2"
       style="display:inline;fill:#4f3d74;stroke-width:5.11583"
       inkscape:label="Circle"
       d="M 529.59906,397.3636 A 176.00023,176.00009 0 0 1 353.59912,573.36362 176.00023,176.00009 0 0 1 177.59906,397.3636 176.00023,176.00009 0 0 1 353.59912,221.36362 176.00023,176.00009 0 0 1 529.59906,397.3636 Z" /><path
       id="rect5"
       style="baseline-shift:baseline;display:inline;overflow:visible;opacity:1;vector-effect:none;fill:#ffffff;stroke-width:51.2597;enable-background:accumulate;stop-color:#000000;stop-opacity:1"
       d="m 413.01621,426.99067 c -0.0296,4.5006 -1.65569,9.00221 -5.03369,12.60886 v 0.10237 l -0.87141,1.00468 h 91.49331 v -96.44707 a 155.75865,157.1954 0 0 0 -13.72117,-28.89968 v 111.62559 z" /><path
       id="path13"
       style="baseline-shift:baseline;display:inline;overflow:visible;opacity:1;vector-effect:none;fill:#ffffff;stroke-width:51.2597;enable-background:accumulate;stop-color:#000000;stop-opacity:1"
       d="m 352.0116,240.16258 a 155.75865,157.1954 0 0 0 -4.47495,0.10264 v 103.36046 c 7.54798,5.44427 10.35701,15.93713 5.98659,24.50261 l -3.38824,7.01951 c 3.80347,-0.10264 7.68279,0.6561 11.01927,2.6501 V 246.49109 h 34.48902 a 155.75865,157.1954 0 0 0 -43.62758,-6.30443 z" /><path
       d="M 266.73812,532.88592 C 247.68748,516.2414 241.16983,489.77091 249.49183,466.40831 l 21.35731,-59.45813 c 2.20417,-6.11679 10.52822,-6.91901 13.83652,-1.30199 l 3.10633,5.51502 c 2.40409,3.91113 2.90642,8.72339 1.40453,13.03483 l -9.82598,27.47364 4.31095,3.80859 59.7595,-67.68069 c 3.5113,-4.00848 9.52507,-4.41345 13.63609,-0.90217 3.91112,3.5113 4.31094,9.62555 0.90217,13.53616 l -44.61893,50.43436 5.8154,5.11571 54.64584,-61.96522 c 3.51129,-4.00851 9.62603,-4.41348 13.53614,-0.90218 4.01361,3.51129 4.41345,9.72602 0.70225,13.6361 l -54.54589,61.96573 5.8159,5.11571 47.0256,-53.34232 c 3.51128,-4.00851 9.62553,-4.41345 13.53562,-0.90218 3.91112,3.51129 4.41345,9.62553 0.90217,13.33572 l -47.0256,53.54274 5.71495,5.11572 31.78508,-35.99606 c 3.51128,-4.00852 9.62553,-4.41345 13.63607,-0.90217 4.01363,3.51128 4.31094,9.62604 0.80479,13.33571 l -52.13925,59.35866 c -22.45993,25.56832 -61.36395,27.97495 -86.83176,5.51451 m 36.99869,-122.82784 28.47624,-32.2859 c 2.4041,-2.7065 5.41406,-5.0132 8.72287,-6.31724 l 3.80859,-7.82066 c 2.40406,-4.71077 0.41008,-10.52823 -4.41346,-12.83441 -4.71076,-2.30667 -10.52821,-0.30754 -12.8344,4.41346 l -25.16694,51.53747 c 0.51262,1.1021 1.1021,2.20417 1.39941,3.30627 m -5.91589,-12.23313 v 0.51259 l 27.87448,-56.85157 c 2.20417,-4.81327 0.30755,-10.52819 -4.51084,-12.83438 -4.71076,-2.35794 -10.52822,-0.41008 -12.83388,4.41346 l -26.471,54.24448 c 6.51766,1.1021 12.23313,4.8133 15.94277,10.52823 m -62.46702,63.4697 21.35679,-59.45864 c 2.70652,-7.52029 9.02428,-12.63396 16.54456,-14.33884 l 21.45731,-44.01719 c 2.30668,-4.81327 0.30755,-10.52822 -4.41348,-12.83386 -4.81327,-2.3067 -10.52871,-0.41008 -12.83437,4.41345 l -39.80671,81.2168 -5.01317,-2.5066 2.10675,-29.178 c 0.41008,-4.51087 -1.39938,-9.02376 -4.61335,-12.23209 l -4.61337,-4.61337 c -4.71076,-4.31094 -12.43297,-1.39939 -12.93434,5.01319 l -5.01371,63.06885 c -1.30353,20.45464 7.72062,40.0061 23.56301,52.23871 -0.20501,-8.82334 1.1021,-17.94756 4.20844,-26.77088 z"
       id="path1-6-9"
       style="display:inline;fill:#ffffff;fill-opacity:1;stroke-width:10.0268"
       inkscape:label="Hands" /><path
       d="m 416.15844,357.34983 h -34.34038 l 48.07641,-96.15285 v 54.94469 h 34.34037 l -48.0764,96.15233 z"
       id="path1-9"
       style="display:inline;fill:#ffffff;stroke-width:6.86803"
       inkscape:label="Bolt" /></g></svg>
